<svg width="22" height="22" fill="none" xmlns="http://www.w3.org/2000/svg"><path d="M11.0049 5.60952c-3.12321 0-5.64241 2.40469-5.64241 5.38598 0 2.9812 2.5192 5.3859 5.64241 5.3859 3.1232 0 5.6424-2.4047 5.6424-5.3859 0-2.98129-2.5192-5.38598-5.6424-5.38598Zm0 8.88748c-2.0183 0-3.6683-1.5703-3.6683-3.5015 0-1.93129 1.64509-3.5016 3.6683-3.5016 2.0232 0 3.6683 1.57031 3.6683 3.5016 0 1.9312-1.65 3.5015-3.6683 3.5015Zm7.1893-9.10779c0 .69844-.5893 1.25625-1.3161 1.25625-.7317 0-1.3161-.5625-1.3161-1.25625 0-.69375.5893-1.25625 1.3161-1.25625s1.3161.5625 1.3161 1.25625Zm3.737 1.275c-.0835-1.68281-.4861-3.17344-1.7776-4.40156-1.2867-1.22813-2.8483-1.6125-4.6112-1.69688-1.817-.09844-7.26294-.09844-9.07991 0-1.75803.07969-3.31964.46406-4.61115 1.69219C.55982 3.48608.16205 4.97671.07366 6.65952c-.10313 1.73438-.10313 6.93278 0 8.66718.08348 1.6828.48616 3.1734 1.77768 4.4016 1.29151 1.2281 2.84821 1.6125 4.61115 1.6968 1.81697.0985 7.26291.0985 9.07991 0 1.7629-.0796 3.3245-.464 4.6112-1.6968 1.2866-1.2282 1.6892-2.7188 1.7776-4.4016.1032-1.7344.1032-6.92812 0-8.66249ZM19.5839 17.1876c-.383.9188-1.1245 1.6266-2.092 1.9969-1.4486.5485-4.8861.4219-6.487.4219-1.60089 0-5.0433.1219-6.48705-.4219-.9625-.3656-1.70401-1.0734-2.09196-1.9969-.57455-1.3828-.44196-4.664-.44196-6.1921 0-1.52817-.12768-4.8141.44196-6.19223.38303-.91875 1.12455-1.62656 2.09196-1.99687 1.44866-.54844 4.88616-.42188 6.48705-.42188 1.6009 0 5.0433-.12187 6.487.42188.9625.36562 1.7041 1.07343 2.092 1.99687.5746 1.38281.442 4.66406.442 6.19223 0 1.5281.1326 4.814-.442 6.1921Z" fill="#fff"/></svg>