<svg width="59" height="20" fill="none" xmlns="http://www.w3.org/2000/svg"><g clip-path="url(#a)"><path d="M0 19.5676V.2162h6.70257A6.88801 6.88801 0 0 1 9.15054.6478 6.24544 6.24544 0 0 1 11.1637 1.8625a5.69196 5.69196 0 0 1 1.3937 1.9483A5.69354 5.69354 0 0 1 13.0262 6.16a5.68989 5.68989 0 0 1-.4742 2.33435A5.6905 5.6905 0 0 1 11.1637 10.43a6.23656 6.23656 0 0 1-2.01316 1.2147 6.88878 6.88878 0 0 1-2.44635.4324h-3.6505v7.4864L0 19.5676ZM6.78355 9.16186a3.37192 3.37192 0 0 0 1.35152-.25427 2.95809 2.95809 0 0 0 1.00008-.68912 3.07731 3.07731 0 0 0 .62111-.97174 2.89188 2.89188 0 0 0 .21621-1.08106 2.9962 2.9962 0 0 0-.83732-2.06819 3.21254 3.21254 0 0 0-2.34837-.95878H3.05369v6.0264l3.72986-.00324ZM15.4045 6.3244v13.2432h3.0002V6.3244h-3.0002Z" fill="#191919"/><path d="M18.9109 2.02445a1.978 1.978 0 0 1-.1444.77538 1.97776 1.97776 0 0 1-.4362.65712 1.90892 1.90892 0 0 1-1.4196.59438V-.00001a1.91153 1.91153 0 0 1 .7722.14806c.2444.10232.4648.2543.6474.44632.1876.1873.3357.41041.4355.65608.0997.24567.1491.50888.1451.774Z" fill="#35AF39"/><path d="M16.9082 0v4.05377a1.93688 1.93688 0 0 1-.7831-.14576 1.9378 1.9378 0 0 1-.6583-.44862 1.97362 1.97362 0 0 1-.4382-.65785 1.97193 1.97193 0 0 1-.1448-.77709 1.97564 1.97564 0 0 1 .146-.77436c.1002-.2457.2488-.4687.437-.65571a1.94319 1.94319 0 0 1 .6585-.44808A1.94369 1.94369 0 0 1 16.9082 0Z" fill="#00BAFC"/><path d="m24.9996 12.8375-4.568-6.5131h3.4869l2.8642 4.189h.081l2.6723-4.189h3.6214l-4.6215 6.5131 4.7024 6.7301h-3.563l-2.865-4.3243h-.081l-2.8407 4.3243h-3.538l4.649-6.7301ZM46.837 16.4054a7.20151 7.20151 0 0 1-2.3799 2.5678c-1.0258.6856-2.2866 1.0284-3.7825 1.0284a7.0165 7.0165 0 0 1-2.7428-.5271 6.49744 6.49744 0 0 1-2.1759-1.473 6.7554 6.7554 0 0 1-1.4325-2.2294 7.53737 7.53737 0 0 1-.5134-2.8245 7.59184 7.59184 0 0 1 .4859-2.716 6.91668 6.91668 0 0 1 1.3645-2.24391 6.50087 6.50087 0 0 1 2.2156-1.56766 6.50061 6.50061 0 0 1 2.6625-.52644c1.0257 0 1.9403.17114 2.7436.51341a5.81818 5.81818 0 0 1 2.0406 1.4325 6.27604 6.27604 0 0 1 1.2835 2.2164c.3049.9134.4557 1.8713.4462 2.8342v.2429a1.2187 1.2187 0 0 0-.0275.243.90026.90026 0 0 0-.0268.2162H36.8103c.0378.5753.1941 1.1366.4591 1.6487.2323.4442.5489.8389.9321 1.162.3624.3027.7801.5321 1.23.6754.4274.1409.8741.2138 1.324.2162.8638 0 1.5756-.207 2.1354-.6211a5.1483 5.1483 0 0 0 1.3767-1.5386l2.5694 1.2706Zm-2.7848-5.1081a3.79643 3.79643 0 0 0-.2567-.9054 2.7693 2.7693 0 0 0-.6211-.91745 3.59184 3.59184 0 0 0-1.0811-.71585c-.4411-.19812-.9769-.29719-1.6074-.29719-.8638 0-1.6072.2567-2.2302.77011-.6229.5134-1.0419 1.20198-1.2567 2.06578h7.0532ZM49.323 6.32439h2.8342v2.00016h.162a3.72472 3.72472 0 0 1 .6656-.95554 4.34076 4.34076 0 0 1 .9467-.76282 6.01415 6.01415 0 0 1 1.1086-.5134 3.43216 3.43216 0 0 1 1.1215-.20082 4.34332 4.34332 0 0 1 1.1078.12227c.2925.07643.5741.18962.8381.33687l-.8648 2.72978a2.87283 2.87283 0 0 0-.6624-.20245 4.9406 4.9406 0 0 0-.8778-.06802 2.98514 2.98514 0 0 0-1.3386.29962 3.4632 3.4632 0 0 0-1.0673.81464 3.7362 3.7362 0 0 0-.7159 1.22192 4.33332 4.33332 0 0 0-.2567 1.4941v6.9269h-2.9961L49.323 6.32439Z" fill="#191919"/></g><defs><clipPath id="a"><path fill="#fff" d="M0 0h58.1067v20H0z"/></clipPath></defs></svg>