<svg width="22" height="24" fill="none" xmlns="http://www.w3.org/2000/svg"><path d="M11 .375C4.92339.375 0 5.57812 0 12c0 6.4219 4.92339 11.625 11 11.625 6.0766 0 11-5.2031 11-11.625C22 5.57812 17.0766.375 11 .375Zm5.4024 7.96406-1.8052 8.99064c-.1331.6375-.4924.7922-.9936.4922l-2.75-2.1422-1.32618 1.35c-.14637.1547-.27056.2859-.55444.2859l.19517-2.9578 5.09635-4.86561c.2218-.20625-.0488-.32344-.3415-.11719l-6.2984 4.1906-2.71452-.8953c-.58992-.1969-.60323-.6234.12419-.9234L15.6395 7.425c.4924-.1875.9226.12656.7629.91406Z" fill="#fff"/></svg>